<mxfile host="app.diagrams.net" modified="2023-06-09T13:34:04.042Z" agent="Mozilla/5.0 (Windows NT 10.0; Win64; x64) AppleWebKit/537.36 (KHTML, like Gecko) Chrome/114.0.0.0 Safari/537.36" etag="SHPM1fdl7lTHwYOG8bzk" version="21.3.8">
  <diagram name="Page-1" id="ZYVzFBfCdTXbve8AFahU">
    <mxGraphModel dx="1636" dy="2063" grid="1" gridSize="10" guides="1" tooltips="1" connect="1" arrows="1" fold="1" page="1" pageScale="1" pageWidth="827" pageHeight="1169" math="0" shadow="0">
      <root>
        <mxCell id="0" />
        <mxCell id="1" parent="0" />
        <mxCell id="oORlP-asXwp0yWecNUN8-51" value="" style="rounded=0;whiteSpace=wrap;html=1;align=center;" vertex="1" parent="1">
          <mxGeometry x="170" y="-110" width="600" height="940" as="geometry" />
        </mxCell>
        <mxCell id="oORlP-asXwp0yWecNUN8-8" style="edgeStyle=orthogonalEdgeStyle;rounded=0;orthogonalLoop=1;jettySize=auto;html=1;entryX=0;entryY=1;entryDx=0;entryDy=0;entryPerimeter=0;" edge="1" parent="1" source="oORlP-asXwp0yWecNUN8-1" target="oORlP-asXwp0yWecNUN8-3">
          <mxGeometry relative="1" as="geometry">
            <mxPoint x="145" y="180" as="targetPoint" />
            <Array as="points">
              <mxPoint x="105" y="220" />
              <mxPoint x="100" y="220" />
            </Array>
          </mxGeometry>
        </mxCell>
        <mxCell id="oORlP-asXwp0yWecNUN8-16" style="edgeStyle=orthogonalEdgeStyle;rounded=0;orthogonalLoop=1;jettySize=auto;html=1;exitX=1;exitY=0.3333333333333333;exitDx=0;exitDy=0;exitPerimeter=0;entryX=0;entryY=0.5;entryDx=0;entryDy=0;" edge="1" parent="1" source="oORlP-asXwp0yWecNUN8-1" target="oORlP-asXwp0yWecNUN8-13">
          <mxGeometry relative="1" as="geometry" />
        </mxCell>
        <mxCell id="oORlP-asXwp0yWecNUN8-1" value="Banque" style="shape=umlActor;verticalLabelPosition=bottom;verticalAlign=top;html=1;" vertex="1" parent="1">
          <mxGeometry x="90" y="515" width="30" height="60" as="geometry" />
        </mxCell>
        <mxCell id="oORlP-asXwp0yWecNUN8-7" style="edgeStyle=orthogonalEdgeStyle;rounded=0;orthogonalLoop=1;jettySize=auto;html=1;exitX=0;exitY=0.3333333333333333;exitDx=0;exitDy=0;exitPerimeter=0;entryX=0;entryY=0.3333333333333333;entryDx=0;entryDy=0;entryPerimeter=0;" edge="1" parent="1" source="oORlP-asXwp0yWecNUN8-2" target="oORlP-asXwp0yWecNUN8-3">
          <mxGeometry relative="1" as="geometry">
            <Array as="points">
              <mxPoint x="30" y="680" />
              <mxPoint x="30" y="120" />
            </Array>
          </mxGeometry>
        </mxCell>
        <mxCell id="oORlP-asXwp0yWecNUN8-15" style="edgeStyle=orthogonalEdgeStyle;rounded=0;orthogonalLoop=1;jettySize=auto;html=1;exitX=1;exitY=0.3333333333333333;exitDx=0;exitDy=0;exitPerimeter=0;entryX=0;entryY=0.5;entryDx=0;entryDy=0;" edge="1" parent="1" source="oORlP-asXwp0yWecNUN8-2" target="oORlP-asXwp0yWecNUN8-14">
          <mxGeometry relative="1" as="geometry" />
        </mxCell>
        <mxCell id="oORlP-asXwp0yWecNUN8-2" value="Client" style="shape=umlActor;verticalLabelPosition=bottom;verticalAlign=top;html=1;" vertex="1" parent="1">
          <mxGeometry x="120" y="660" width="30" height="60" as="geometry" />
        </mxCell>
        <mxCell id="oORlP-asXwp0yWecNUN8-11" style="edgeStyle=orthogonalEdgeStyle;rounded=0;orthogonalLoop=1;jettySize=auto;html=1;exitX=1;exitY=0.3333333333333333;exitDx=0;exitDy=0;exitPerimeter=0;entryX=0;entryY=0.5;entryDx=0;entryDy=0;" edge="1" parent="1" source="oORlP-asXwp0yWecNUN8-3" target="oORlP-asXwp0yWecNUN8-9">
          <mxGeometry relative="1" as="geometry" />
        </mxCell>
        <mxCell id="oORlP-asXwp0yWecNUN8-12" style="edgeStyle=orthogonalEdgeStyle;rounded=0;orthogonalLoop=1;jettySize=auto;html=1;exitX=1;exitY=0.3333333333333333;exitDx=0;exitDy=0;exitPerimeter=0;entryX=0;entryY=0.5;entryDx=0;entryDy=0;" edge="1" parent="1" source="oORlP-asXwp0yWecNUN8-3" target="oORlP-asXwp0yWecNUN8-10">
          <mxGeometry relative="1" as="geometry" />
        </mxCell>
        <mxCell id="oORlP-asXwp0yWecNUN8-48" style="edgeStyle=orthogonalEdgeStyle;rounded=0;orthogonalLoop=1;jettySize=auto;html=1;exitX=1;exitY=0.3333333333333333;exitDx=0;exitDy=0;exitPerimeter=0;entryX=0;entryY=0.5;entryDx=0;entryDy=0;" edge="1" parent="1" source="oORlP-asXwp0yWecNUN8-3" target="oORlP-asXwp0yWecNUN8-44">
          <mxGeometry relative="1" as="geometry" />
        </mxCell>
        <mxCell id="oORlP-asXwp0yWecNUN8-3" value="Utilisateur" style="shape=umlActor;verticalLabelPosition=bottom;verticalAlign=top;html=1;" vertex="1" parent="1">
          <mxGeometry x="100" y="100" width="30" height="60" as="geometry" />
        </mxCell>
        <mxCell id="oORlP-asXwp0yWecNUN8-20" value="" style="edgeStyle=orthogonalEdgeStyle;rounded=0;orthogonalLoop=1;jettySize=auto;html=1;" edge="1" parent="1" source="oORlP-asXwp0yWecNUN8-9" target="oORlP-asXwp0yWecNUN8-19">
          <mxGeometry relative="1" as="geometry" />
        </mxCell>
        <mxCell id="oORlP-asXwp0yWecNUN8-50" value="Include" style="edgeLabel;html=1;align=center;verticalAlign=middle;resizable=0;points=[];" vertex="1" connectable="0" parent="oORlP-asXwp0yWecNUN8-20">
          <mxGeometry x="0.1576" y="-1" relative="1" as="geometry">
            <mxPoint as="offset" />
          </mxGeometry>
        </mxCell>
        <mxCell id="oORlP-asXwp0yWecNUN8-9" value="Enregistrement" style="ellipse;whiteSpace=wrap;html=1;" vertex="1" parent="1">
          <mxGeometry x="340" y="10" width="120" height="70" as="geometry" />
        </mxCell>
        <mxCell id="oORlP-asXwp0yWecNUN8-38" style="edgeStyle=orthogonalEdgeStyle;rounded=0;orthogonalLoop=1;jettySize=auto;html=1;exitX=1;exitY=0.5;exitDx=0;exitDy=0;entryX=0;entryY=0.5;entryDx=0;entryDy=0;" edge="1" parent="1" source="oORlP-asXwp0yWecNUN8-10" target="oORlP-asXwp0yWecNUN8-37">
          <mxGeometry relative="1" as="geometry" />
        </mxCell>
        <mxCell id="oORlP-asXwp0yWecNUN8-39" value="include" style="edgeLabel;html=1;align=center;verticalAlign=middle;resizable=0;points=[];" vertex="1" connectable="0" parent="oORlP-asXwp0yWecNUN8-38">
          <mxGeometry x="0.3192" relative="1" as="geometry">
            <mxPoint x="-13" as="offset" />
          </mxGeometry>
        </mxCell>
        <mxCell id="oORlP-asXwp0yWecNUN8-10" value="Connexion" style="ellipse;whiteSpace=wrap;html=1;" vertex="1" parent="1">
          <mxGeometry x="330" y="120" width="120" height="70" as="geometry" />
        </mxCell>
        <mxCell id="oORlP-asXwp0yWecNUN8-29" style="edgeStyle=orthogonalEdgeStyle;rounded=0;orthogonalLoop=1;jettySize=auto;html=1;exitX=1;exitY=0.5;exitDx=0;exitDy=0;entryX=0;entryY=0.5;entryDx=0;entryDy=0;" edge="1" parent="1" source="oORlP-asXwp0yWecNUN8-44" target="oORlP-asXwp0yWecNUN8-28">
          <mxGeometry relative="1" as="geometry">
            <Array as="points">
              <mxPoint x="440" y="345" />
              <mxPoint x="440" y="420" />
              <mxPoint x="530" y="420" />
            </Array>
          </mxGeometry>
        </mxCell>
        <mxCell id="oORlP-asXwp0yWecNUN8-31" value="Extend" style="edgeLabel;html=1;align=center;verticalAlign=middle;resizable=0;points=[];" vertex="1" connectable="0" parent="oORlP-asXwp0yWecNUN8-29">
          <mxGeometry x="0.4228" y="-2" relative="1" as="geometry">
            <mxPoint as="offset" />
          </mxGeometry>
        </mxCell>
        <mxCell id="oORlP-asXwp0yWecNUN8-13" value="Parcourir les demandes" style="ellipse;whiteSpace=wrap;html=1;" vertex="1" parent="1">
          <mxGeometry x="260" y="500" width="120" height="70" as="geometry" />
        </mxCell>
        <mxCell id="oORlP-asXwp0yWecNUN8-24" style="edgeStyle=orthogonalEdgeStyle;rounded=0;orthogonalLoop=1;jettySize=auto;html=1;exitX=1;exitY=0.5;exitDx=0;exitDy=0;" edge="1" parent="1" source="oORlP-asXwp0yWecNUN8-14" target="oORlP-asXwp0yWecNUN8-23">
          <mxGeometry relative="1" as="geometry" />
        </mxCell>
        <mxCell id="oORlP-asXwp0yWecNUN8-32" value="include" style="edgeLabel;html=1;align=center;verticalAlign=middle;resizable=0;points=[];" vertex="1" connectable="0" parent="oORlP-asXwp0yWecNUN8-24">
          <mxGeometry x="-0.3706" relative="1" as="geometry">
            <mxPoint x="7" y="-35" as="offset" />
          </mxGeometry>
        </mxCell>
        <mxCell id="oORlP-asXwp0yWecNUN8-14" value="Deposer un dossier" style="ellipse;whiteSpace=wrap;html=1;" vertex="1" parent="1">
          <mxGeometry x="240" y="640" width="120" height="70" as="geometry" />
        </mxCell>
        <mxCell id="oORlP-asXwp0yWecNUN8-19" value="Vérifiez qu&#39;il n&#39;existe pas déjà" style="ellipse;whiteSpace=wrap;html=1;" vertex="1" parent="1">
          <mxGeometry x="540" y="10" width="120" height="70" as="geometry" />
        </mxCell>
        <mxCell id="oORlP-asXwp0yWecNUN8-23" value="Vérifie qu&#39;il ne le posède deja" style="ellipse;whiteSpace=wrap;html=1;" vertex="1" parent="1">
          <mxGeometry x="480" y="590" width="120" height="70" as="geometry" />
        </mxCell>
        <mxCell id="oORlP-asXwp0yWecNUN8-26" value="Accepter la demande" style="ellipse;whiteSpace=wrap;html=1;" vertex="1" parent="1">
          <mxGeometry x="530" y="300" width="120" height="70" as="geometry" />
        </mxCell>
        <mxCell id="oORlP-asXwp0yWecNUN8-28" value="Refuser la demande" style="ellipse;whiteSpace=wrap;html=1;" vertex="1" parent="1">
          <mxGeometry x="530" y="390" width="120" height="70" as="geometry" />
        </mxCell>
        <mxCell id="oORlP-asXwp0yWecNUN8-33" value="Filtre les banques" style="ellipse;whiteSpace=wrap;html=1;" vertex="1" parent="1">
          <mxGeometry x="480" y="695" width="120" height="70" as="geometry" />
        </mxCell>
        <mxCell id="oORlP-asXwp0yWecNUN8-34" style="edgeStyle=orthogonalEdgeStyle;rounded=0;orthogonalLoop=1;jettySize=auto;html=1;exitX=1;exitY=0.5;exitDx=0;exitDy=0;entryX=0;entryY=0.5;entryDx=0;entryDy=0;" edge="1" parent="1" source="oORlP-asXwp0yWecNUN8-14" target="oORlP-asXwp0yWecNUN8-33">
          <mxGeometry relative="1" as="geometry">
            <mxPoint x="370" y="685" as="sourcePoint" />
            <mxPoint x="490" y="635" as="targetPoint" />
          </mxGeometry>
        </mxCell>
        <mxCell id="oORlP-asXwp0yWecNUN8-36" value="Extends" style="edgeLabel;html=1;align=center;verticalAlign=middle;resizable=0;points=[];" vertex="1" connectable="0" parent="oORlP-asXwp0yWecNUN8-34">
          <mxGeometry x="0.1371" y="2" relative="1" as="geometry">
            <mxPoint as="offset" />
          </mxGeometry>
        </mxCell>
        <mxCell id="oORlP-asXwp0yWecNUN8-37" value="Verifier le mot de passe" style="ellipse;whiteSpace=wrap;html=1;" vertex="1" parent="1">
          <mxGeometry x="530" y="120" width="120" height="70" as="geometry" />
        </mxCell>
        <mxCell id="oORlP-asXwp0yWecNUN8-40" value="Afficher message d&#39;erreur" style="ellipse;whiteSpace=wrap;html=1;" vertex="1" parent="1">
          <mxGeometry x="470" y="210" width="120" height="70" as="geometry" />
        </mxCell>
        <mxCell id="oORlP-asXwp0yWecNUN8-42" style="edgeStyle=orthogonalEdgeStyle;rounded=0;orthogonalLoop=1;jettySize=auto;html=1;exitX=0.5;exitY=1;exitDx=0;exitDy=0;entryX=0;entryY=0.5;entryDx=0;entryDy=0;" edge="1" parent="1" source="oORlP-asXwp0yWecNUN8-10" target="oORlP-asXwp0yWecNUN8-40">
          <mxGeometry relative="1" as="geometry">
            <mxPoint x="170" y="130" as="sourcePoint" />
            <mxPoint x="340" y="165" as="targetPoint" />
          </mxGeometry>
        </mxCell>
        <mxCell id="oORlP-asXwp0yWecNUN8-43" value="extend" style="edgeLabel;html=1;align=center;verticalAlign=middle;resizable=0;points=[];" vertex="1" connectable="0" parent="oORlP-asXwp0yWecNUN8-42">
          <mxGeometry x="-0.3117" relative="1" as="geometry">
            <mxPoint as="offset" />
          </mxGeometry>
        </mxCell>
        <mxCell id="oORlP-asXwp0yWecNUN8-46" style="edgeStyle=orthogonalEdgeStyle;rounded=0;orthogonalLoop=1;jettySize=auto;html=1;exitX=1;exitY=0.5;exitDx=0;exitDy=0;" edge="1" parent="1" source="oORlP-asXwp0yWecNUN8-44" target="oORlP-asXwp0yWecNUN8-26">
          <mxGeometry relative="1" as="geometry" />
        </mxCell>
        <mxCell id="oORlP-asXwp0yWecNUN8-47" value="Extend" style="edgeLabel;html=1;align=center;verticalAlign=middle;resizable=0;points=[];" vertex="1" connectable="0" parent="oORlP-asXwp0yWecNUN8-46">
          <mxGeometry x="0.3103" y="-1" relative="1" as="geometry">
            <mxPoint as="offset" />
          </mxGeometry>
        </mxCell>
        <mxCell id="oORlP-asXwp0yWecNUN8-44" value="Discuter sur une demande" style="ellipse;whiteSpace=wrap;html=1;" vertex="1" parent="1">
          <mxGeometry x="290" y="310" width="120" height="70" as="geometry" />
        </mxCell>
        <mxCell id="oORlP-asXwp0yWecNUN8-53" value="Crédit Express Web Application&amp;nbsp;" style="text;html=1;strokeColor=none;fillColor=none;align=center;verticalAlign=middle;whiteSpace=wrap;rounded=0;" vertex="1" parent="1">
          <mxGeometry x="420" y="-80" width="100" height="30" as="geometry" />
        </mxCell>
      </root>
    </mxGraphModel>
  </diagram>
</mxfile>
